<svg xmlns="http://www.w3.org/2000/svg" width="834" height="834"  shape-rendering="geometricPrecision" image-rendering="optimizeQuality" fill-rule="nonzero" xmlns:v="https://vecta.io/nano"><path d="M102 774c0 1 1 1 1 1l-1-1z" fill="#e8bf3d"/><g fill="#fff"><path d="M302 133c-16 0-28 13-28 29 0 13 9 24 21 27v130h15V189c12-3 21-14 21-27 0-16-13-29-29-29zm251 29c0-16-13-29-29-29-15 0-28 13-28 29 0 13 9 24 21 27v130h15V189c12-3 21-14 21-27zm253 255h-27c0 50-10 98-29 141-27 65-73 120-131 159s-127 62-202 62c-50 0-98-10-141-29-65-27-120-73-159-131S55 492 55 417c0-50 10-98 29-141 27-65 73-120 131-159s127-62 202-62c50 0 98 10 141 29 65 27 120 73 159 131s62 127 62 202h27 28c0-57-12-112-33-162-31-75-84-139-151-184C584 26 503 0 417 0c-57 0-112 12-162 33-75 31-139 84-184 151C26 250 0 331 0 417c0 57 12 112 33 162 31 75 84 139 151 184 66 45 147 71 233 71 57 0 112-12 162-33 75-31 139-84 184-151 45-66 71-147 71-233h-28z"/><path d="M442 622v-54h-56v54c-68 2-128 43-156 101-1 1-1 3-2 4l-3 14c29 17 106 56 209 48 81-7 139-39 167-57-1-3-1-6-2-9-29-58-88-99-157-101z"/><path d="M519 380v1 1c0 1-1 1-1 1v1l-1 1-1 1h-1c-1 1-2 2-3 2h-2c-1 0-2 0-3-1-1 0-1 0-2-1 0 0-1 0-1-1-1 0-1-1-1-1-1-1-1-1-1-2-1 0-1-1-1-2 0-2-2-7-5-11l-1-1c-2-3-6-5-11-5s-8 2-11 5v1c-4 4-5 9-6 11v2c-1 1-1 1-1 2-1 0-1 1-1 1h-1c0 1 0 1-1 1 0 1-1 1-1 1-2 1-3 1-4 1h-2c-1 0-2-1-3-2-1 0-1 0-2-1 0 0 0-1-1-1v-1l-1-1v-1-1-1-1-1-1c1-4 3-11 8-17 5-8 14-15 27-15h1c12 0 21 7 27 15 4 6 6 13 7 17v1 1c1 0 1 0 1 1l-1 1zM412 513c-63 0-72-72-72-72h144s-9 72-72 72zm-83-145v1c-5 5-6 11-6 11v1s0 1-1 1v1 1h-1v1h-1c0 1 0 1-1 1 0 1-1 1-1 1h-1c-1 1-2 1-3 1h-2c-2-1-4-2-6-4 0-1-1-1-1-2v-1-1-1-1-1c1-5 3-13 8-19 6-8 14-14 27-14s21 6 27 14c5 6 7 14 8 19v1 1 1 1 1c0 1-1 1-1 2-1 2-4 3-6 4h-2c-1 0-2 0-3-1h-1l-1-1c-1 0-1 0-1-1h-1v-1h-1v-1-1c-1 0-1-1-1-1v-1s-1-6-5-11l-1-1c-3-3-6-5-11-5s-8 2-11 5zm370-21h-13v-59c0-25-34-46-75-46H217c-41 0-74 21-74 46v59h-13c-14 0-25 7-25 15v78c0 8 11 14 25 14h13v72c0 25 33 45 74 45h160v1h75v-1h159c41 0 75-20 75-45v-72h13c13 0 24-6 24-14v-78c0-8-11-15-24-15z"/></g></svg>